<svg xmlns="http://www.w3.org/2000/svg"
     width="8.88889in" height="8.88889in"
     viewBox="0 0 800 800" fill="none" stroke="black">
    <path
             stroke-width="60"
            d="M 666.70,266.70
           C 666.70,266.70 666.70,466.70 666.70,466.70M 566.70,366.70
           C 566.70,366.70 766.70,366.70 766.70,366.70M 433.30,233.30
           C 433.30,306.92 373.62,366.60 300.00,366.60
             226.38,366.60 166.70,306.92 166.70,233.30
             166.70,159.68 226.38,100.00 300.00,100.00
             373.62,100.00 433.30,159.68 433.30,233.30 Z
           M 566.70,700.00
           C 566.70,700.00 566.70,633.30 566.70,633.30
             566.70,559.70 507.00,500.00 433.40,500.00
             433.40,500.00 166.70,500.00 166.70,500.00
             93.00,500.00 33.30,559.70 33.30,633.30
             33.30,633.30 33.30,700.00 33.30,700.00"/>
</svg>
